<?xml version="1.0" standalone="no"?>
<!DOCTYPE svg PUBLIC "-//W3C//DTD SVG 20010904//EN"
 "http://www.w3.org/TR/2001/REC-SVG-20010904/DTD/svg10.dtd">
<svg version="1.0" xmlns="http://www.w3.org/2000/svg"
 width="199.000000pt" height="199.000000pt" viewBox="0 0 199.000000 199.000000"
 preserveAspectRatio="xMidYMid meet">
<metadata>
Created by potrace 1.14, written by Peter Selinger 2001-2017
</metadata>
<g transform="translate(0.000000,199.000000) scale(0.100000,-0.100000)"
fill="#000000" stroke="none">
<path d="M855 1983 c-306 -42 -592 -245 -740 -526 -84 -160 -116 -304 -110
-497 10 -368 217 -688 552 -854 377 -187 835 -111 1136 188 132 130 239 324
271 491 4 17 9 41 12 55 3 14 7 75 8 136 13 474 -309 883 -781 992 -74 17
-270 25 -348 15z m350 -162 c157 -43 285 -119 397 -233 215 -220 294 -538 207
-833 -64 -214 -214 -399 -411 -504 -69 -38 -188 -85 -188 -76 0 3 -12 0 -27
-6 -68 -26 -268 -28 -370 -4 -13 3 -31 7 -40 9 -10 2 -45 14 -78 27 -323 121
-545 434 -549 774 -1 124 7 182 39 282 38 119 108 234 200 328 138 141 279
217 465 250 95 18 264 10 355 -14z"/>
<path d="M599 1327 c-75 -28 -125 -86 -161 -185 -31 -88 -31 -361 1 -421 17
-30 62 -57 103 -60 29 -2 43 3 64 24 26 26 26 29 19 98 -20 182 -12 266 30
311 18 20 30 24 56 20 60 -9 97 -43 227 -200 161 -196 247 -256 365 -257 183
-1 277 147 271 423 -2 102 -12 171 -30 197 -41 64 -143 76 -173 20 -15 -28
-16 -46 -6 -122 13 -94 12 -146 -1 -203 -14 -65 -37 -92 -78 -92 -58 1 -98 34
-227 190 -118 142 -181 200 -250 235 -64 33 -156 42 -210 22z"/>
</g>
</svg>
